<svg width="161" height="161" viewBox="0 0 161 161" fill="none" xmlns="http://www.w3.org/2000/svg">
<rect width="161" height="161" rx="48" fill="#C2400C"/>
<path d="M29.4428 133.427L30.8918 128.29C34.0531 128.203 36.6875 127.807 38.795 127.105C40.8147 126.49 42.4393 125.48 43.6686 124.075C44.898 122.758 45.8201 120.914 46.4348 118.543L64.8756 52.6828C65.9294 48.9068 66.0611 46.0529 65.2708 44.121C64.4805 42.1891 62.9437 41.2231 60.6606 41.2231C58.8165 41.2231 57.0163 41.9256 55.26 43.3306C53.5916 44.7357 52.0109 46.931 50.5181 49.9167L48.0154 54.5269H42.8783L45.9079 48.8629C47.6642 45.526 49.5961 42.672 51.7036 40.3011C53.8989 37.9301 56.3577 36.1299 59.0799 34.9005C61.8022 33.6712 64.7878 33.0565 68.0369 33.0565C74.4473 33.0565 78.9258 35.164 81.4724 39.379C84.1068 43.5941 84.3703 49.4337 82.2627 56.8979L65.2708 117.489C64.5683 120.036 64.6122 122.056 65.4025 123.548C66.1928 125.129 67.8174 126.271 70.2762 126.973C72.8228 127.763 76.3353 128.203 80.8138 128.29L79.4966 133.427C77.6525 133.34 75.3255 133.252 72.5154 133.164C69.7054 133.164 66.6758 133.12 63.4267 133.032C60.2654 132.944 57.0602 132.901 53.8111 132.901C49.0692 132.901 44.5029 132.944 40.1122 133.032C35.6337 133.208 32.0773 133.34 29.4428 133.427ZM87.0047 104.844C83.1409 104.844 79.7161 103.966 76.7305 102.21C73.8326 100.453 71.769 98.0385 70.5396 94.9651L72.1203 90.75C73.2618 92.7697 74.7986 94.3504 76.7305 95.4919C78.7502 96.6335 80.9016 97.2043 83.1848 97.2043C86.0826 97.2043 88.8488 96.2384 91.4832 94.3065C94.2054 92.2867 96.6203 89.5645 98.7278 86.1398C100.835 82.7151 102.46 78.8073 103.601 74.4167C104.831 69.9382 105.446 65.2841 105.446 60.4543C105.446 54.6586 104.48 50.224 102.548 47.1505C100.704 44.0771 98.0253 42.5403 94.5127 42.5403C92.1418 42.5403 89.9025 43.2867 87.795 44.7796C85.6875 46.1846 83.7995 48.336 82.131 51.2339L80.9455 49.2581C83.4921 43.9893 86.6095 39.9937 90.2977 37.2715C94.0737 34.4615 98.3765 33.0565 103.206 33.0565C109.704 33.0565 114.842 35.3835 118.618 40.0376C122.394 44.6039 124.282 50.8387 124.282 58.7419C124.282 64.7133 123.228 70.4651 121.12 75.9973C119.101 81.4418 116.334 86.3593 112.822 90.75C109.309 95.1407 105.314 98.6093 100.835 101.156C96.4446 103.615 91.8344 104.844 87.0047 104.844Z" fill="white"/>
</svg>
